<?xml version="1.0" encoding="utf-8"?>
<!-- Generator: Adobe Illustrator 28.2.0, SVG Export Plug-In . SVG Version: 6.00 Build 0)  -->
<svg version="1.1" id="Layer_1" xmlns="http://www.w3.org/2000/svg" xmlns:xlink="http://www.w3.org/1999/xlink" x="0px" y="0px" viewBox="0 0 800 172" style="enable-background:new 0 0 800 172;" xml:space="preserve">
  <style type="text/css">
	.st0{fill:none;}
	.st1{fill:#FFFFFF;}
	.st2{fill:#FF9F27;}
</style>
  <rect class="st0" width="800" height="172" />
  <path class="st1" d="M201.6,33.6c33.2,0,46.7,17.3,46.7,52.5s-13.4,52.5-46.7,52.5h-35.5v-105H201.6z M186.2,50.6v71.1h15.4
	c16.5,0,25.8-6.5,25.8-20.4V71c0-13.9-9.3-20.4-25.8-20.4H186.2z M308.7,84.7c0-8.2-4.8-11.7-12.4-11.7c-7.7,0-13.3,3.9-13.3,11.1
	h-19.3C264.4,67,278.2,58,297.1,58s30.6,9.4,30.6,27v38.6h11v15h-28.1l-0.2-12.2h-0.6c-4.5,8.7-11.7,14.1-23.8,14.1
	c-14.2,0-24.9-10-24.9-24.3c0-12.7,9.3-23.2,25.8-24.6l21.8-1.9L308.7,84.7L308.7,84.7z M308.7,107.6v-3.1l-23.2,2
	c-3.1,0.3-4.3,2-4.3,5.1v6.8c0,4.6,4.8,7.1,11.6,7.1C302.7,125.5,308.7,117.5,308.7,107.6 M377.3,74.8h19.6v-15h-19.6V33.6H358v26.3
	h-15.6v15H358v63.8h38.9v-15h-19.6V74.8L377.3,74.8z M456.5,84.7c0-8.2-4.8-11.7-12.4-11.7c-7.7,0-13.3,3.9-13.3,11.1h-19.3
	C412.2,67,426.1,58,445,58s30.6,9.4,30.6,27v38.6h11v15h-28.1l-0.2-12.2h-0.6c-4.5,8.7-11.7,14.1-23.8,14.1
	c-14.2,0-24.9-10-24.9-24.3c0-12.7,9.3-23.2,25.8-24.6l21.8-1.9L456.5,84.7L456.5,84.7z M456.5,107.6v-3.1l-23.2,2
	c-3.1,0.3-4.3,2-4.3,5.1v6.8c0,4.6,4.8,7.1,11.6,7.1C450.5,125.5,456.5,117.5,456.5,107.6 M524.7,89.5c-5.1-1.1-8.7-3.2-8.7-8.3
	c0-5.1,4.6-8.2,11.3-8.2c6.8,0,11.6,3.7,11.9,11.1h19.3C557.8,66.6,545.1,58,527.3,58c-19.3,0-30.6,10.7-30.6,24.1
	c0,12.4,6.5,19.6,19.8,22.6l13.6,2.9c7,1.4,11.7,3.6,11.7,9.3c0,5.9-6,8.7-13.4,8.7c-8.5,0-13.4-4.2-14.2-11.9h-19.3
	c0.8,17.1,12.7,26.9,33.5,26.9c21,0,32.8-10.8,32.8-24.6c0-13.9-9.1-20.4-20.9-23L524.7,89.5z M595.5,50.7h-19.9V33.6h19.9V50.7z
	 M575.8,59.8h19.3v78.8h-19.3V59.8z M644.9,74.8h19.6v-15h-19.6V33.6h-19.3v26.3H610v15h15.6v63.8h38.9v-15h-19.6V74.8z M710.5,58
	c21.3,0,35.2,16.1,35.2,37.7v9.7H695v5.3c0,9.4,7.3,14.8,15.6,14.8s14.2-4.6,15.1-12.7H745c-2.5,17.5-15.6,27.7-34.6,27.7
	c-22.4,0-35.5-16.7-35.5-41.4C675,74.4,689.2,58,710.5,58 M695.1,90.4H726v-2.8c0-8.5-6.6-14.7-15.5-14.7S695,79.1,695,87.6
	L695.1,90.4L695.1,90.4z" />
  <path class="st2" d="M20.1,20.6h71.1v30H20.1V20.6z M20.1,151.6h71.1v-30H20.1V151.6z M91.2,121.7h30V50.6h-30V121.7z" />
  <g>
    <path class="st1" d="M752.1,49.2c0.6,0,0.9-0.4,0.9-1v-0.8c0-0.6-0.3-0.9-0.9-0.9h-2.3v2.7H752.1z M749.8,50.4v3.1h-1.6v-8.3h3.8
		c1.7,0,2.6,1,2.6,2.6c0,1.5-0.8,2.3-1.8,2.5l1.8,3.1h-1.8l-1.7-3.1h-1.3V50.4z M751.3,56.4c4,0,7.1-3.1,7.1-7.1s-3.1-7.1-7.1-7.1
		s-7.1,3.1-7.1,7.1S747.3,56.4,751.3,56.4 M751.3,40.7c4.8,0,8.7,3.9,8.7,8.7s-3.9,8.7-8.7,8.7s-8.7-3.9-8.7-8.7
		S746.5,40.7,751.3,40.7" />
  </g>
</svg>